/* XPM */
static char * close_prelight_xpm[] = {
"25 25 5 1",
" 	c None",
".	c #858585",
"+	c #F7F7F7 s active_color_2",
"@	c #C65252",
"#	c #F7F7F7 s active_color_2",
".........................",
"+++++++++++++++++++++++++",
"+++++++++++++++++++++++++",
"+++++++++++++++++++++++++",
"+++++++++++++++++++++++++",
"+++++++++++++++++++++++++",
"+++++++++++++++++++++++++",
"+++++++++++++++++++++++++",
"+++++++++++++++++++++++++",
"++++++++@@#+++#@@++++++++",
"++++++++@@@#+#@@@++++++++",
"++++++++#@@@#@@@#++++++++",
"+++++++++#@@@@@#+++++++++",
"++++++++++#@@@#++++++++++",
"+++++++++#@@@@@#+++++++++",
"++++++++#@@@#@@@#++++++++",
"++++++++@@@#+#@@@++++++++",
"++++++++@@#+++#@@++++++++",
"+++++++++++++++++++++++++",
"+++++++++++++++++++++++++",
"+++++++++++++++++++++++++",
"+++++++++++++++++++++++++",
"+++++++++++++++++++++++++",
"+++++++++++++++++++++++++",
"+++++++++++++++++++++++++"};
