/* XPM */
static char * shade_toggled_pressed_xpm[] = {
"24 25 5 1",
" 	c None",
".	c #978A96",
"+	c #F7F7F7 s active_color_2",
"@	c #F7F7F7 s active_color_2",
"#	c #F956EF",
"........................",
"++++++++++++++++++++++++",
"++++++++++++++++++++++++",
"++++++++++++++++++++++++",
"++++++++++++++++++++++++",
"++++++++++++++++++++++++",
"++++++++++++++++++++++++",
"++++++++++++++++++++++++",
"++++++++++++++++++++++++",
"++++++++++++++++++++++++",
"++++++++++++++++++++++++",
"++++++++@@++++@@++++++++",
"++++++++##@++@##++++++++",
"+++++++++##@@##+++++++++",
"++++++++++####++++++++++",
"+++++++++++##+++++++++++",
"++++++++++++++++++++++++",
"++++++++++++++++++++++++",
"++++++++++++++++++++++++",
"++++++++++++++++++++++++",
"++++++++++++++++++++++++",
"++++++++++++++++++++++++",
"++++++++++++++++++++++++",
"++++++++++++++++++++++++",
"++++++++++++++++++++++++"};
