<?xml version="1.0" encoding="UTF-8" standalone="no"?>
<!-- Created with Inkscape (http://www.inkscape.org/) -->

<svg
   xmlns:dc="http://purl.org/dc/elements/1.1/"
   xmlns:cc="http://creativecommons.org/ns#"
   xmlns:rdf="http://www.w3.org/1999/02/22-rdf-syntax-ns#"
   xmlns:svg="http://www.w3.org/2000/svg"
   xmlns="http://www.w3.org/2000/svg"
   xmlns:sodipodi="http://sodipodi.sourceforge.net/DTD/sodipodi-0.dtd"
   xmlns:inkscape="http://www.inkscape.org/namespaces/inkscape"
   width="40"
   height="50"
   viewBox="-25 -50 100 300"
   version="1.1"
   id="svg8"
   inkscape:version="0.92.4 5da689c313, 2019-01-14"
   sodipodi:docname="maximized_focus_active.svg">
  <defs
     id="defs2" />
  <sodipodi:namedview
     id="base"
     pagecolor="#ffffff"
     bordercolor="#666666"
     borderopacity="1.0"
     inkscape:pageopacity="0.0"
     inkscape:pageshadow="2"
     inkscape:zoom="16"
     inkscape:cx="2.133784"
     inkscape:cy="25.950227"
     inkscape:document-units="mm"
     inkscape:current-layer="layer1"
     showgrid="false"
     inkscape:window-width="1916"
     inkscape:window-height="1036"
     inkscape:window-x="0"
     inkscape:window-y="20"
     inkscape:window-maximized="1" />
  <metadata
     id="metadata5">
    <rdf:RDF>
      <cc:Work
         rdf:about="">
        <dc:format>image/svg+xml</dc:format>
        <dc:type
           rdf:resource="http://purl.org/dc/dcmitype/StillImage" />
        <dc:title></dc:title>
      </cc:Work>
    </rdf:RDF>
  </metadata>
  <g
     inkscape:groupmode="layer"
     id="layer1"
     inkscape:label="Layer 3">
    <path
       sodipodi:type="star"
       style="opacity:1;fill:#414458;fill-opacity:1;stroke:#414458;stroke-width:11.9699316;stroke-opacity:1"
       id="path4563"
       sodipodi:sides="3"
       sodipodi:cx="25.318272"
       sodipodi:cy="98.39574"
       sodipodi:r1="51.693466"
       sodipodi:r2="33.410942"
       sodipodi:arg1="1.2587541"
       sodipodi:arg2="2.3059517"
       inkscape:flatsided="false"
       inkscape:rounded="0.28"
       inkscape:randomized="0"
       d="M 41.188315,147.59285 C 29.089554,151.49568 12.3388,131.70394 2.9094723,123.17752 -6.5198545,114.6511 -27.892135,99.970285 -25.222702,87.541039 -22.553269,75.111792 2.9622577,70.501083 15.061018,66.598256 27.159777,62.695429 50.559876,51.526899 59.989202,60.053319 c 9.429327,8.52642 0.664555,32.928869 -2.004877,45.358111 -2.669432,12.42925 -4.697251,38.2786 -16.79601,42.18142 z"
       inkscape:transform-center-x="5.7728346"
       inkscape:transform-center-y="2.0390682" />
    <path
       style="opacity:1;fill:#aaccff;fill-opacity:1;stroke:#aaccff;stroke-width:0.04419417;stroke-opacity:1"
       d="m 21.292498,33.906825 c -0.486173,-0.125545 -1.230658,-0.478024 -1.757244,-0.831973 -0.804489,-0.540745 -1.525719,-1.165195 -3.009688,-2.605825 -0.496755,-0.482247 -1.392418,-1.2871 -1.990362,-1.788561 -1.631,-1.367825 -2.769287,-2.534425 -3.306973,-3.389227 -0.551429,-0.876651 -0.756328,-1.848096 -0.56289,-2.668708 0.211756,-0.898318 1.008073,-1.766526 2.191726,-2.389593 0.882057,-0.464309 1.798685,-0.793727 3.819062,-1.372497 0.754568,-0.216158 1.957754,-0.60444 2.673748,-0.86285 2.446827,-0.883085 3.414125,-1.126854 4.600456,-1.159362 0.807731,-0.02213 1.200491,0.03032 1.703754,0.22755 0.899762,0.352614 1.562632,1.189065 1.790407,2.259246 0.07416,0.348442 0.09414,0.596218 0.09443,1.171146 5.53e-4,1.110565 -0.136219,1.936626 -0.683638,4.128927 -0.371994,1.489761 -0.379932,1.526984 -0.659059,3.090344 -0.565762,3.168776 -1.093809,4.545416 -2.119333,5.525196 -0.746152,0.71287 -1.710303,0.94355 -2.784391,0.666187 z"
       id="path4584"
       inkscape:connector-curvature="0"
       transform="matrix(6,0,0,6,-95,-50)" />
  </g>
</svg>
