#define max_width 10
#define max_height 10
static unsigned char max_bits[] = {
   0x00, 0x00, 0x78, 0x00, 0xfc, 0x00, 0x86, 0x01, 0x02, 0x01, 0x32, 0x01,
   0x02, 0x01, 0x86, 0x01, 0xfc, 0x00, 0x78, 0x00 };
